<svg t="1653554007518" class="icon" viewBox="0 0 1024 1024" version="1.1" xmlns="http://www.w3.org/2000/svg" p-id="1584" width="1.4em" height="1.4em"><path d="M356.774 578.668C279.812 528.088 229 440.978 229 342c0-156.297 126.703-283 283-283s283 126.703 283 283c0 98.978-50.812 186.088-127.774 236.668C808.213 638.98 907 778.953 907 942c0 24.3-19.7 44-44 44s-44-19.7-44-44c0-169.551-137.449-307-307-307S205 772.449 205 942c0 24.3-19.7 44-44 44s-44-19.7-44-44c0-163.047 98.787-303.02 239.774-363.332zM512 537c107.696 0 195-87.304 195-195s-87.304-195-195-195-195 87.304-195 195 87.304 195 195 195z" p-id="1585" fill="#515151"></path></svg>