<svg t="1653554142197" class="icon" viewBox="0 0 1024 1024" version="1.1" xmlns="http://www.w3.org/2000/svg" p-id="2913" width="1.4em" height="1.4em"><path d="M701.44 85.333333C844.266667 85.333333 960 201.088 960 343.893333c0 129.386667-95.061333 236.586667-219.157333 255.530667L251.776 939.626667a42.666667 42.666667 0 0 1-54.528-4.864l-86.677333-86.677334a42.666667 42.666667 0 0 1-4.864-54.528l340.202666-489.066666C464.853333 180.394667 572.053333 85.333333 701.44 85.333333zM459.690667 435.626667L197.248 812.885333l35.2 35.2L609.706667 585.664a259.328 259.328 0 0 1-150.037334-150.037333z m92.906666-178.688l-2.368 4.245333a172.373333 172.373333 0 0 0 238.869334 231.168c-51.669333-24.106667-105.685333-62.506667-139.626667-96.469333-34.389333-34.389333-72.896-87.914667-96.874667-138.944zM701.44 171.52c-29.866667 0-57.984 7.594667-82.496 20.970667 13.013333 40.661333 57.856 108.885333 91.413333 142.464 33.024 33.002667 100.053333 76.842667 142.826667 90.709333A172.373333 172.373333 0 0 0 701.461333 171.52z" p-id="2914" fill="#515151"></path></svg>